<?xml version="1.0" encoding="UTF-8" standalone="no"?>
<!DOCTYPE svg PUBLIC "-//W3C//DTD SVG 1.1//EN" "http://www.w3.org/Graphics/SVG/1.1/DTD/svg11.dtd">
<svg version="1.1" xmlns="http://www.w3.org/2000/svg" xmlns:xlink="http://www.w3.org/1999/xlink" preserveAspectRatio="xMidYMid meet" viewBox="0 0 640 640" width="640" height="640"><defs><path d="M640 320C640 496.61 496.61 640 320 640C143.39 640 0 496.61 0 320C0 143.39 143.39 0 320 0C496.61 0 640 143.39 640 320Z" id="cAIx7JxoW"></path><path d="M489.8 65.35C492 61.03 497.19 59.36 501.41 61.6C503.53 62.74 505.1 64.72 505.73 67.09C550.17 221.32 525.92 327.66 474.91 390.75C455.16 415.34 429.87 434.64 401.21 447.01C374.81 458.47 346.15 463.44 317.54 461.52C262.75 457.61 212.73 427.66 189.52 374.01C183.58 360.29 179.73 345.72 178.13 330.8C174.89 300.91 180.59 270.71 194.49 244.21C209.4 215.92 233.15 193.57 261.95 180.73C278.01 173.49 295.07 168.84 312.53 166.94C312.53 166.94 312.53 166.94 312.53 166.94C430.62 99.21 489.71 65.35 489.8 65.35Z" id="aQju3UejA"></path><path d="M497.67 60C502.42 60.12 506.18 64.16 506.06 69.02C506.05 69.38 506.02 69.74 505.97 70.09C505.97 70.53 498.45 171.69 401.97 274.06C401.88 274.15 401.16 274.93 401.07 275.02C378.4 298.82 353.53 320.3 326.8 339.17C332.6 340.28 378.96 349.1 384.76 350.2C389.38 351.34 392.22 356.1 391.11 360.83C390.1 365.11 386.16 367.97 381.88 367.52C374.31 366.07 313.8 354.46 306.24 353.01C237.27 397.71 120.36 438.98 110.15 536.37C109.52 541.19 105.19 544.57 100.48 543.92C96 543.31 92.74 539.24 93.04 534.62C105.23 417.89 221.15 387.84 299.34 336.8C299.45 336.73 300.32 336.15 300.42 336.08C331.63 315.87 360.53 292.16 386.6 265.4C385.92 258.45 380.43 202.91 379.75 195.97C379.12 191.15 382.42 186.72 387.13 186.07C391.84 185.43 396.17 188.81 396.8 193.63C396.83 193.83 396.85 194.03 396.86 194.23C397.38 199.62 401.54 242.74 402.06 248.12C482.47 155.72 488.81 68.98 488.86 68.59C488.86 68.59 488.86 68.59 488.86 68.59C491.56 62.79 494.5 59.92 497.67 60Z" id="ebu0r4fHJ"></path></defs><g><g><g><use xlink:href="#cAIx7JxoW" opacity="1" fill="#000000" fill-opacity="1"></use></g><g><use xlink:href="#aQju3UejA" opacity="1" fill="#45b549" fill-opacity="1"></use><g><use xlink:href="#aQju3UejA" opacity="1" fill-opacity="0" stroke="#000000" stroke-width="1" stroke-opacity="0"></use></g></g><g><use xlink:href="#ebu0r4fHJ" opacity="1" fill="#009549" fill-opacity="1"></use><g><use xlink:href="#ebu0r4fHJ" opacity="1" fill-opacity="0" stroke="#000000" stroke-width="1" stroke-opacity="0"></use></g></g></g></g></svg>